<svg width="800" height="800" viewBox="0 0 1024 1024" class="icon" xmlns="http://www.w3.org/2000/svg"><path d="M716 190.9v-67.8h-44v67.8H352v-67.8h-44v67.8H92v710h840v-710H716zm-580 44h172v69.2h44v-69.2h320v69.2h44v-69.2h172v151.3H136V234.9zm752 622H136V402.2h752v454.7z"/><path d="M286 565.7a33 33 0 1 0 66 0 33 33 0 1 0-66 0ZM477 565.7a33 33 0 1 0 66 0 33 33 0 1 0-66 0ZM668.1 565.7a33 33 0 1 0 66 0 33 33 0 1 0-66 0ZM286 693.4a33 33 0 1 0 66 0 33 33 0 1 0-66 0ZM477 693.4a33 33 0 1 0 66 0 33 33 0 1 0-66 0ZM668.1 693.4a33 33 0 1 0 66 0 33 33 0 1 0-66 0Z" fill="#E50E62"/></svg>