<svg fill="#000" height="800" width="800" version="1.1" id="Capa_1" xmlns="http://www.w3.org/2000/svg" viewBox="0 0 345 345" xml:space="preserve"><style>path{fill:#fff}</style><path d="M327.5 309.601H35V17.899c0-9.665-7.835-17.5-17.5-17.5S0 8.234 0 17.899v309.202c0 9.665 7.835 17.5 17.5 17.5h310c9.665 0 17.5-7.835 17.5-17.5s-7.835-17.5-17.5-17.5z"/><path d="M75.552 234.954c4.737 0 9.458-1.912 12.91-5.68l48.744-53.222 87.189 38.293a17.5 17.5 0 0 0 21.137-5.658l53.488-72.763 4.493 31.321c1.252 8.725 8.736 15.019 17.301 15.018.827 0 1.665-.059 2.506-.18 9.567-1.372 16.21-10.24 14.838-19.807L327.532 88.19c-1.372-9.567-10.243-16.207-19.807-14.838L233.64 83.978c-9.567 1.372-16.211 10.24-14.838 19.807 1.372 9.567 10.241 16.211 19.807 14.838l33.19-4.76-46.163 62.799-85.832-37.697a17.502 17.502 0 0 0-19.942 4.203l-57.21 62.465c-6.528 7.127-6.042 18.197 1.085 24.725a17.437 17.437 0 0 0 11.815 4.596z"/></svg>